<svg width="87" height="80" viewBox="0 0 87 80" fill="none" xmlns="http://www.w3.org/2000/svg">
<path d="M15.5322 75.7624C15.4432 73.9551 15.3702 71.6241 15.3698 70.5825C15.3691 68.9891 15.3149 68.7104 15.0289 68.8262C14.8419 68.9019 14.5487 69.0209 14.3769 69.0907C13.9456 69.2658 13.6513 67.6954 14.0297 67.2394C14.1804 67.0576 14.4159 66.9468 14.553 66.993C14.9945 67.1419 15.3541 66.3862 15.3616 65.2945C15.37 64.0592 15.139 63.809 14.5704 64.4372C14.1671 64.883 14.1632 64.8827 13.9169 64.393C13.7242 64.01 13.4172 63.8795 12.5361 63.8065C11.3495 63.7082 10.8364 63.4471 10.8364 62.9417C10.8364 62.7763 10.3362 62.4114 9.72481 62.1309C8.67623 61.65 8.62004 61.5802 8.73063 60.899L8.84779 60.1767L7.29362 60.1677C5.97831 60.1602 5.69163 60.0865 5.42761 59.6888C5.23227 59.3944 4.87194 59.219 4.46334 59.219C3.65566 58.848 3.30779 58.5527 3.19516 59.0423C3.24615 59.2822 2.05072 59.8003 1.86784 59.6174C1.81163 59.5612 1.74909 58.7603 1.72847 57.8375C1.67974 55.6436 2.41853 53.2187 3.55549 51.8411C4.85834 50.2625 5.3968 49.5307 5.40677 49.3252C5.4249 48.9476 6.6593 47.7132 7.39242 47.3393C8.23546 46.9091 9.02342 46.1889 9.02342 45.8483C9.02342 45.4576 7.5003 45.5832 7.34552 45.9866C7.22518 46.3002 7.09397 46.2664 6.41138 45.7459C5.44484 45.0087 4.89732 45.1252 4.39943 46.1742C3.83469 47.3642 3.98154 48.0801 4.65257 47.4091C4.79126 47.2704 5.01562 47.2253 5.15114 47.3091C5.54728 47.5539 5.43577 48.2365 3.62075 48.3412C3.26224 48.3412 2.50805 49.9055 2.12189 51.4502C1.94172 52.1708 1.58615 53.4742 1.33166 54.3466L0.868896 55.933L0.988321 54.7403C1.16645 52.9654 2.09923 49.9615 3.20537 47.6006C6.04811 41.5334 12.2192 36.5956 18.8248 35.1026C19.6164 34.9236 19.6128 35.1651 18.8112 36.0039C17.6314 37.2381 16.9572 38.2928 16.5017 39.6167C16.0643 40.888 16.048 41.5536 16.0288 58.858C16.0088 76.9542 15.8527 82.2692 15.5322 75.7624Z" fill="#063A2B" stroke="#063A2B"/>
<path d="M3.10449 49.1126L5.2574 48.2061" stroke="#063A2B" stroke-width="16"/>
<path d="M60.1213 78.8592C59.8833 78.2815 42.3047 60.8054 41.9616 60.8054C41.8086 60.8054 41.6133 60.9194 41.5272 61.0585C41.2808 61.4571 38.122 62.8225 36.3525 63.2955C34.1486 63.8845 31.7589 64.1999 29.1359 64.2484C27.7162 64.2747 26.9264 64.3776 26.9264 64.5365C26.9264 64.6724 27.7128 65.4946 28.6739 66.3637C29.635 67.2328 32.1158 69.5756 34.1871 71.5699C36.6485 73.9397 38.4787 75.5018 39.4701 76.0785C40.3043 76.564 40.9411 77.007 40.8849 77.0632C40.8287 77.1194 40.0781 76.7092 39.2168 76.152C37.5368 75.0653 35.9643 73.6693 29.8883 67.8698L26.0117 64.1696L23.5796 64.2301L21.1475 64.2906L21.0879 56.6722L21.0283 49.0539L25.7337 48.9805C30.0952 48.9125 30.5249 48.8683 31.6127 48.3765C32.2581 48.0846 32.9645 47.6491 33.1823 47.4084C33.451 47.1115 33.6289 47.0528 33.7359 47.2257C33.8345 47.3853 34.1654 47.1421 34.6211 46.5751C35.3055 45.7234 35.4048 45.677 36.2931 45.7923C36.8125 45.8596 37.3193 46.053 37.419 46.2216C37.5187 46.3902 37.7834 46.5282 38.0071 46.5282C38.5507 46.5282 39.2115 47.2874 39.1223 47.8091C39.081 48.0495 39.1705 48.2038 39.3326 48.1716C39.4876 48.1408 40.082 48.4721 40.6531 48.9082C41.2242 49.3442 41.9183 49.7009 43.8276 49.7816C44.3171 49.4609 44.9519 49.3589 46.628 49.3319C47.9508 49.3106 48.9178 49.3965 50.4094 48.7944C50.8101 48.7944 50.8187 48.7452 50.1551 50.2457C49.8435 50.9503 49.5886 51.6822 49.5886 51.8721C49.5886 52.3476 47.3214 55.732 46.2611 56.8395C45.7836 57.338 44.7563 58.2967 43.9781 58.9697C43.1999 59.6428 42.5633 60.3052 42.5633 60.4416C42.5633 60.5781 46.6042 64.7318 51.543 69.6717C57.0737 75.2038 60.4784 78.7728 60.4075 78.9643C60.3214 79.1969 60.2495 79.1703 60.1213 78.8592Z" fill="#2D7753" stroke="#2D7753"/>
<path d="M35.9299 33.8976C35.8789 33.8022 35.9043 30.9706 35.9863 27.6053C36.1135 22.3927 36.0863 21.4278 35.8018 21.0899C35.5066 20.7391 35.5086 20.6933 35.8202 20.6933C36.0761 20.6933 36.2759 20.2124 36.5506 18.937C38.0814 11.8281 43.1378 5.52843 49.7019 2.55176C51.4662 1.75155 55.42 0.755778 57.2938 0.639294C58.1039 0.588984 58.5118 0.596462 58.2002 0.655837C52.5453 1.73478 49.362 2.7045 49.8152 4.2027C50.3761 4.47192 50.9549 4.66954 51.1013 4.64166C51.4111 4.94692 54.5543 5.23564 55.2444 5.39949C55.7718 5.23201 56.1883 5.89239 55.7328 6.17385C55.3897 6.38574 55.6551 7.09598 56.0773 7.09598C56.385 7.29337 57.6423 8.91054 57.5204 8.65264C57.5204 8.99711 59.034 10.4062 59.3064 10.3154C59.4444 10.2694 59.654 10.4869 59.7725 10.7985C59.8911 11.1101 60.1626 11.463 60.3756 11.5822C60.7767 12.367 62.1378 13.4457 61.8799 14.1745C62.6978 14.7105 63.8517 14.8317 69.758 15.0026L75.3102 15.1633L69.5313 15.2503C66.353 15.2981 63.4975 15.3178 63.1859 15.294C61.6046 15.173 58.5599 15.7482 56.6828 15.8635C56.4451 15.7164 52.7563 16.4672 51.4823 16.9218C48.2123 18.0887 45.1965 19.9046 42.8833 22.0997C39.9427 24.8903 37.8258 28.437 36.7852 32.3165C36.3897 33.7909 36.1298 34.2716 35.9299 33.8976Z" fill="#83C481" stroke="#83C481"/>
<path d="M46.7559 78.9215C44.041 78.3717 42.6856 77.9584 41.6134 77.3533C38.6605 75.6865 37.6256 74.8804 34.1873 71.5699C32.1159 69.5756 29.6351 67.2328 28.674 66.3637C27.7129 65.4946 26.9265 64.6724 26.9265 64.5364C26.9265 64.3776 27.7163 64.2747 29.1361 64.2484C31.759 64.1999 34.1487 63.8845 36.3526 63.2955C38.1221 62.8225 41.281 61.4571 41.5273 61.0585C41.6134 60.9193 41.8088 60.8053 41.9617 60.8053C42.2897 60.8053 59.8859 78.2763 60.0879 78.8025C60.2118 79.1252 59.5909 79.159 53.9441 79.1334C50.4893 79.1178 47.2545 79.0223 46.7559 78.9215Z" fill="#063A2B" stroke="#063A2B"/>
<path d="M49.5985 51.8037C49.5931 51.6514 49.8435 50.9503 50.1551 50.2457C50.8186 48.7452 50.81 48.7944 49.1097 49.5525C48.9177 49.3965 47.9507 49.3106 46.6279 49.332C44.9518 49.3589 44.3171 49.4609 42.1954 49.7009C41.9183 49.7009 41.2241 49.3442 40.653 48.9082C40.082 48.4721 39.4875 48.1408 39.3325 48.1716C39.1705 48.2038 39.081 48.0495 39.1222 47.8091C39.2115 47.2874 38.5507 46.5282 38.007 46.5282C37.7833 46.5282 37.5186 46.3902 37.4189 46.2216C37.3192 46.053 36.8125 45.8596 36.2931 45.7923C35.4022 45.6768 35.3064 45.7225 34.607 46.5928C34.1991 47.1004 33.8254 47.3959 33.7767 47.2495C33.7279 47.1031 34.0368 46.5758 34.4633 46.0777C35.7238 44.6051 36.2541 41.9738 35.765 39.618C35.3191 37.4694 34.3147 36.1688 32.2572 35.0749C31.2387 34.5333 30.8378 34.4685 27.8419 34.359C23.2535 34.1913 21.0521 34.563 19.2212 35.8142C17.6772 37.1118 19.7818 34.9813 19.4097 35.0833C19.1641 34.8377 15.6036 35.966 14.0361 36.7864C12.4898 37.5957 12.3251 37.6364 11.8528 37.3271C11.5718 37.1431 11.2539 37.013 11.1458 37.0379C10.7641 37.1261 9.76313 36.5865 9.62082 36.2158C9.5415 36.0091 9.62942 35.6218 9.81638 35.3548C10.2538 34.7305 10.2576 34.2031 9.82363 34.3697C9.18547 33.838 8.41496 33.838 8.14505 33.4578C7.1427 33.6583 6.73251 33.4471 6.89182 32.8126C6.98723 32.4323 6.89772 32.2209 6.56572 32.0432C6.31395 31.9084 6.03769 31.5687 5.95225 31.2881C5.86681 31.0075 5.63635 30.5953 5.44032 30.3721C5.11489 30.0018 5.11987 29.9025 5.49719 29.239C6.05378 28.26 8.10493 26.1542 10.0484 24.5663C12.069 22.9153 14.0742 21.8069 16.4451 21.0305C17.4733 20.6937 18.3147 20.3477 18.3147 20.2614C18.3147 19.2989 27.269 18.8413 31.4588 19.5896C33.0073 19.8661 35.1278 20.4755 35.4095 20.7248C35.5257 20.8277 35.2708 20.7948 34.8429 20.6516C34.4151 20.5084 33.555 20.3826 32.9318 20.3722L31.7987 20.3534L31.7389 27.3954L31.679 34.4372L32.3054 34.7482C33.0506 35.118 35.3091 37.234 36.1562 38.889L36.2668 37.5569C36.3368 36.7112 36.2654 35.9567 36.071 35.4915C35.6941 34.5895 35.6744 33.8181 36.0302 33.894C36.1811 33.9262 36.5011 33.2658 36.7712 32.3643C37.7299 29.1646 38.1058 28.3284 39.6031 26.0636C42.0345 22.3859 44.7232 20.0533 48.7763 18.1057C51.3865 16.8514 52.8983 16.3795 54.6875 16.261L56.2739 16.1561L54.7664 17.5747C53.1986 19.0503 52.807 19.6615 52.3325 21.3732C52.177 21.934 51.9782 22.6479 51.8908 22.9595C51.787 23.3298 51.4781 23.6086 50.9999 23.7642C49.9704 24.0992 49.6708 24.4387 50.0261 24.867C50.199 25.0755 50.2509 25.4684 50.1603 25.8813C50.0384 26.4366 50.1104 26.6199 51.9694 27.2386C52.4 27.264 52.4159 27.3698 52.2724 29.2483C52.0789 31.781 52.0444 39.6826 52.2241 40.3527C52.352 40.8293 52.4829 40.8626 54.2329 40.8626C55.4555 40.8626 56.1857 40.7643 56.3376 40.5794C56.5766 40.2882 56.5032 28.0898 56.26 27.6964C56.1907 27.5842 59.806 27.5214 64.5907 27.5518L73.0439 27.6053L73.2415 29.1433C73.3981 30.3635 73.3582 30.9722 73.0486 32.0894C71.8999 36.235 69.042 39.206 64.7985 40.6659C63.7343 41.0321 62.8457 41.0897 58.2212 41.0927C55.2806 41.0945 52.7578 41.1711 52.6151 41.2626C52.4723 41.3542 52.2321 42.6001 52.0811 44.0315C51.913 45.6258 51.5667 47.3377 51.1871 48.4506C50.5478 50.3255 49.6162 52.2919 49.5985 51.8037ZM51.455 28.9813C51.5302 27.5982 51.1826 27.4342 50.2772 28.4254L49.5992 29.1676L50.3305 29.7842C50.7325 30.1233 51.1366 30.329 51.2284 30.2413C51.3201 30.1536 51.4221 29.5866 51.455 28.9813Z" fill="#418457" stroke="#418457"/>
<path d="M0.745253 47.548C0.826157 37.8105 0.769962 38.3523 2.10884 34.4039C2.88502 32.1148 4.89652 28.9074 6.85182 26.8418C9.55813 23.9827 12.6563 21.9363 16.1234 20.7171C18.3719 19.9264 18.3148 19.9395 18.3148 20.2158C18.3148 20.3271 17.4734 20.6937 16.4452 21.0305C14.0742 21.8069 12.0691 22.9153 10.0485 24.5663C8.10502 26.1542 6.05387 28.26 5.49729 29.239C5.11996 29.9025 5.11498 30.0018 5.44041 30.3721C5.63644 30.5953 5.8669 31.0075 5.95234 31.2881C6.03778 31.5686 6.31404 31.9083 6.56581 32.0432C6.89781 32.2209 6.98732 32.4323 6.89191 32.8126C6.7326 33.4471 7.14279 33.6583 8.14514 33.4578C8.75498 34.0681 9.41354 34.4742 9.82372 34.3697C10.2577 34.2031 10.2539 34.7305 9.81648 35.3548C9.62951 35.6218 9.54159 36.0091 9.62091 36.2157C9.76685 36.5965 10.6149 37.0377 11.3543 37.1182C12.002 37.1886 12.3807 37.6775 11.9694 37.912C11.7824 38.0185 10.7762 38.7417 9.73376 39.519C5.22829 42.878 1.70954 49.0784 0.874665 55.1296C0.738465 56.1161 0.69517 53.5768 0.745253 47.548Z" fill="#4E876D" stroke="#4E876D"/>
<path d="M52.2242 40.3527C52.0414 39.6704 52.0445 32.9238 52.2292 29.9068L52.377 27.4919H54.2555C55.2886 27.4919 56.1899 27.5826 56.2583 27.6932C56.5029 28.0886 56.5779 40.2868 56.3377 40.5793C56.1858 40.7643 55.4556 40.8626 54.233 40.8626C52.483 40.8626 52.3521 40.8293 52.2242 40.3527Z" fill="#2A663F" stroke="#2A663F"/>
<path d="M73.1176 28.5099L73.0439 27.6052L64.2057 27.5626C50.69 27.4976 49.8283 27.3931 50.1651 25.8603C50.2512 25.4687 50.1955 25.0712 50.0262 24.867C49.6708 24.4387 49.9704 24.0992 51 23.7642C51.4782 23.6085 51.787 23.3298 51.8908 22.9595C51.9783 22.6479 52.177 21.934 52.3325 21.3731C52.8064 19.6637 53.1978 19.0516 54.7664 17.5661C56.2617 16.1502 56.268 16.1391 55.5304 16.2248C55.1213 16.2721 54.8664 16.2399 54.9638 16.1527C55.2487 15.8977 56.586 15.7056 56.7075 15.9023C56.7686 16.0013 56.1531 16.7374 55.3398 17.538C52.8728 19.9661 52.2077 21.6501 52.3479 25.1124L52.4213 26.9254L62.846 27.0444C68.5795 27.1099 73.288 27.1862 73.3093 27.2143C73.5219 27.4944 73.5937 28.6951 73.417 29.0112C73.2327 29.3405 73.1777 29.2485 73.1176 28.5099Z" fill="#53A05E" stroke="#53A05E"/>
<path d="M0.812568 67.774C0.752286 56.7096 0.756366 56.5961 1.2776 54.6866C1.56677 53.6271 1.94862 52.1709 2.12629 51.4502C2.50566 49.9112 3.26031 48.3412 4.92371 48.6997C5.43565 48.2365 5.54716 47.5539 5.15103 47.3091C5.01551 47.2253 4.79115 47.2704 4.65246 47.4091C3.98143 48.0801 3.83458 47.3642 4.39932 46.1742C4.89721 45.1252 5.44472 45.0087 6.41126 45.7459C7.09385 46.2665 7.22507 46.3002 7.3454 45.9866C7.50019 45.5832 9.02331 45.4576 9.02331 45.8483C9.02331 46.189 8.23534 46.9092 7.39231 47.3393C6.65918 47.7132 5.42478 48.9476 5.40665 49.3252C5.39668 49.5307 4.85823 50.2625 3.55538 51.8411C2.41842 53.2188 1.67963 55.6436 1.72835 57.8375C1.74897 58.7603 1.81152 59.5612 1.86772 59.6174C2.0506 59.8003 3.24603 59.2823 3.19504 59.0423C3.32626 58.1408 4.10471 59.2458 4.46322 59.219C4.87182 59.219 5.23215 59.3944 5.4275 59.6888C5.69151 60.0865 5.97819 60.1602 7.29351 60.1677L8.84767 60.1767L8.73052 60.899C8.61992 61.5802 8.67612 61.65 9.7247 62.1309C10.3361 62.4115 10.8363 62.7763 10.8363 62.9417C10.8363 63.4471 11.3494 63.7082 12.5359 63.8065C13.4171 63.8795 13.7241 64.01 13.9168 64.393C14.1631 64.8828 14.1669 64.883 14.5703 64.4372C15.1389 63.809 15.3699 64.0592 15.3615 65.2945C15.354 66.3862 14.9943 67.142 14.5529 66.9931C14.4158 66.9468 14.1803 67.0577 14.0296 67.2394C13.691 67.6473 13.9424 69.2679 14.3201 69.1124C15.4344 68.6538 15.3687 68.5617 15.3696 70.5825C15.3701 71.6241 15.4367 73.9297 15.5181 75.7058L15.6658 78.9351H8.26957H0.873304L0.812568 67.774Z" fill="#02382B" stroke="#02382B"/>
<path d="M50.3305 29.7842L49.5992 29.1676L50.2773 28.4254C51.1827 27.4341 51.5303 27.5982 51.4551 28.9813C51.4222 29.5866 51.3202 30.1536 51.2284 30.2413C51.1367 30.329 50.7326 30.1232 50.3305 29.7842Z" fill="#489856" stroke="#489856"/>
<path d="M64.319 14.8063C64.0074 14.7037 63.4685 14.6096 63.1213 14.5972C62.7741 14.5847 62.2368 14.4088 61.9274 14.206C61.4781 13.9116 61.4185 13.7727 61.6312 13.5164C61.9052 13.1864 61.6274 12.6847 61.1349 12.6199C60.4748 13.0414 60.6484 11.6064 60.3681 11.5523C60.1691 11.4759 59.9053 11.1475 59.7818 10.8225C59.6583 10.4976 59.4443 10.2694 59.3063 10.3154C59.0305 10.4074 57.6484 9.11631 57.4394 8.57151C57.2903 8.60482 56.2068 7.11569 56.0772 7.09597C55.655 7.09597 55.3896 6.38574 55.7327 6.17385C56.1882 5.89238 55.7717 5.23201 55.2444 5.39948C53.854 4.82454 51.3644 4.82454 51.1013 4.64166C50.9549 4.66953 50.3761 4.47192 49.3619 3.34855C49.3619 2.89599 50.8268 2.27822 53.1012 1.77149C54.0983 1.5494 55.4751 1.20902 56.1606 1.01548C57.2135 0.718152 59.6503 0.651073 71.8471 0.58286L86.2873 0.502182L86.4384 1.10454C86.6494 1.94531 86.1447 5.30498 85.5813 6.81111C85.323 7.50185 84.5871 8.84277 83.946 9.79096C83.0171 11.1652 82.4283 11.7521 81.045 12.6824C77.825 14.848 77.5508 14.9085 70.7777 14.9539C67.537 14.9754 64.6306 14.909 64.319 14.8063Z" fill="#8DD27C" stroke="#8DD27C"/>
<path d="M0.732667 61.1453C0.732894 58.7771 0.766429 57.8391 0.807221 59.0608C0.848013 60.2825 0.847797 62.2202 0.806778 63.3666C0.76576 64.5131 0.732441 63.5135 0.732667 61.1453Z" fill="#063A2B" stroke="#063A2B"/>
<path d="M35.7081 38.3125C35.4898 37.9789 35.3115 37.6224 35.3115 37.5202C35.3115 37.2258 32.997 35.0913 32.3056 34.7481L31.6792 34.4372L31.739 27.3954L31.7989 20.3533L32.5782 20.2792C33.4462 20.1965 35.6256 20.8066 35.9395 21.22C36.0564 21.3741 36.0714 24.3081 35.975 28.1718C35.8441 33.4183 35.871 35.0081 36.1001 35.5585C36.2928 36.0215 36.3433 36.7118 36.2483 37.5895L36.1047 38.9191L35.7081 38.3125Z" fill="#2A663F" stroke="#2A663F"/>
</svg>
